<svg width="800" height="600" viewBox="0 0 800 600" fill="none" xmlns="http://www.w3.org/2000/svg">
  <rect width="800" height="600" rx="40" fill="#FFF7FB"/>
  <rect x="90" y="90" width="620" height="420" rx="32" fill="url(#bg)"/>
  <circle cx="620" cy="182" r="78" fill="#FFD6E7"/>
  <circle cx="220" cy="440" r="96" fill="#F8C9D7"/>
  <rect x="223" y="192" width="230" height="214" rx="36" fill="#FFFFFF" stroke="#E8B4C5" stroke-width="8"/>
  <rect x="256" y="226" width="164" height="147" rx="24" fill="#FFF2F8"/>
  <rect x="283" y="253" width="106" height="24" rx="12" fill="#D86B8C"/>
  <rect x="283" y="288" width="84" height="18" rx="9" fill="#F1A3B8"/>
  <rect x="283" y="314" width="64" height="18" rx="9" fill="#F7C8D8"/>
  <rect x="465" y="208" width="112" height="158" rx="24" fill="#FFFFFF" stroke="#E8B4C5" stroke-width="8"/>
  <rect x="485" y="230" width="72" height="114" rx="16" fill="#FDEFF6"/>
  <path d="M504 248C504 229.222 519.222 214 538 214V214C556.778 214 572 229.222 572 248V248H504V248Z" fill="#D86B8C"/>
  <path d="M510 294H566" stroke="#F1A3B8" stroke-width="10" stroke-linecap="round"/>
  <path d="M510 316H554" stroke="#F7C8D8" stroke-width="10" stroke-linecap="round"/>
  <circle cx="180" cy="180" r="16" fill="#D86B8C"/>
  <circle cx="612" cy="430" r="12" fill="#F1A3B8"/>
  <circle cx="660" cy="268" r="10" fill="#F7C8D8"/>
  <circle cx="190" cy="370" r="9" fill="#D86B8C"/>
  <circle cx="650" cy="380" r="8" fill="#F1A3B8"/>
  <path d="M197 122C230 116 260 136 268 165" stroke="#D86B8C" stroke-width="8" stroke-linecap="round"/>
  <path d="M572 120C600 110 628 120 640 152" stroke="#F1A3B8" stroke-width="8" stroke-linecap="round"/>
  <defs>
    <linearGradient id="bg" x1="143" y1="112" x2="647" y2="493" gradientUnits="userSpaceOnUse">
      <stop stop-color="#FFF3F8"/>
      <stop offset="1" stop-color="#FBE5EE"/>
    </linearGradient>
  </defs>
</svg>
